<svg width="28" height="28" fill="currentColor" viewBox="0 0 24 24" xmlns="http://www.w3.org/2000/svg">
<path d="M12 10.202 9.303 12 12 13.798 14.697 12 12 10.202Zm4.5.596L19.197 9 13 4.87v3.595l3.5 2.333Zm3.5.07L18.303 12 20 13.131v-2.263Zm-3.5 2.334L13 15.535v3.596l6.197-4.13-2.697-1.799ZM11 8.465V4.87L4.803 9 7.5 10.798 11 8.465ZM4.803 15 11 19.131v-3.596l-3.5-2.333L4.803 15Zm.894-3L4 10.87v2.261l1.697-1.13ZM2 9a1 1 0 0 1 .445-.832l9-6a1 1 0 0 1 1.11 0l9 6A1 1 0 0 1 22 9v6a1 1 0 0 1-.445.832l-9 6a1 1 0 0 1-1.11 0l-9-6A.999.999 0 0 1 2 15V9Z"></path>
</svg>